<svg xmlns="http://www.w3.org/2000/svg" viewBox="0 0 512 512">
  <defs>
    <linearGradient id="r" x1="0" y1="0" x2="1" y2="1">
      <stop offset="0%" stop-color="#FF5B53"/>
      <stop offset="100%" stop-color="#E23B37"/>
    </linearGradient>
  </defs>
  <!-- document body -->
  <path d="M120 48 H338 L424 134 V440 a24 24 0 0 1 -24 24 H120 a24 24 0 0 1 -24 -24 V72 a24 24 0 0 1 24 -24 Z"
        fill="#ffffff" stroke="#E9E9E9" stroke-width="6"/>
  <!-- folded corner -->
  <path d="M338 48 L424 134 H362 a24 24 0 0 1 -24 -24 Z" fill="url(#r)"/>
  <!-- letter P -->
  <path d="M172 440 V240 C172 200 201 177 252 177 C305 177 338 208 338 253 C338 298 305 324 256 324 L198 324"
        fill="none" stroke="url(#r)" stroke-width="60" stroke-linecap="round" stroke-linejoin="round"/>
</svg>
